<?xml version="1.0"?>
<svg width="280" height="40" xmlns="http://www.w3.org/2000/svg" xmlns:svg="http://www.w3.org/2000/svg" preserveAspectRatio="xMidYMid meet" version="1.0">
 <defs>
  <g id="svg_1"/>
 </defs>
 <g class="layer">
  <title>Layer 1</title>
  <g id="svg_70" transform="translate(-6.75 0) translate(-0.25 -5.75) matrix(1 0 0 1 -3.25 1.5)">
   <g fill="#335eea" id="svg_2">
    <g id="svg_3" transform="translate(10.143905, 32.596867)">
     <g id="svg_4">
      <path d="m10.73,-3.66c0.62,0 1.22,-0.09 1.8,-0.28c0.58,-0.19 1.01,-0.36 1.28,-0.53l0.41,-0.28l1.72,3.44c-0.06,0.04 -0.14,0.1 -0.24,0.17c-0.09,0.07 -0.32,0.21 -0.7,0.41c-0.37,0.18 -0.76,0.35 -1.17,0.5c-0.42,0.14 -0.97,0.27 -1.64,0.39c-0.67,0.11 -1.36,0.17 -2.08,0.17c-1.65,0 -3.21,-0.41 -4.69,-1.22c-1.48,-0.81 -2.67,-1.93 -3.58,-3.34c-0.89,-1.43 -1.34,-2.97 -1.34,-4.61c0,-1.25 0.27,-2.45 0.8,-3.6c0.53,-1.14 1.23,-2.12 2.11,-2.94c0.88,-0.82 1.91,-1.47 3.09,-1.96c1.18,-0.49 2.38,-0.74 3.61,-0.74c1.14,0 2.2,0.14 3.17,0.42c0.97,0.28 1.66,0.55 2.06,0.82l0.6,0.4l-1.72,3.44c-0.09,-0.08 -0.25,-0.18 -0.45,-0.3c-0.2,-0.12 -0.61,-0.28 -1.21,-0.48c-0.6,-0.21 -1.21,-0.31 -1.83,-0.31c-0.98,0 -1.85,0.16 -2.62,0.48c-0.77,0.31 -1.39,0.73 -1.84,1.25c-0.45,0.51 -0.8,1.06 -1.04,1.66c-0.23,0.59 -0.34,1.2 -0.34,1.81c0,1.35 0.5,2.57 1.52,3.64c1,1.06 2.45,1.59 4.32,1.59zm0,0" id="svg_5"/>
     </g>
    </g>
   </g>
   <g fill="#335eea" id="svg_6">
    <g id="svg_7" transform="translate(26.341721, 32.596867)">
     <g id="svg_8">
      <path d="m10.31,-17.75l7.16,17.75l-4.34,0l-1.32,-3.55l-6.75,0l-1.31,3.55l-4.36,0l7.17,-17.75l3.75,0zm0.13,10.66l-1.99,-5.18l-0.04,0l-1.97,5.18l4,0zm0,0" id="svg_9"/>
     </g>
    </g>
   </g>
   <g fill="#335eea" id="svg_10">
    <g id="svg_11" transform="translate(43.206387, 32.596867)">
     <g id="svg_12">
      <path d="m5.33,-17.75l0,14.2l6.12,0l0,3.55l-10.15,0l0,-17.75l4.03,0zm0,0" id="svg_13"/>
     </g>
    </g>
   </g>
   <g fill="#335eea" id="svg_14">
    <g id="svg_15" transform="translate(55.360127, 32.596867)">
     <g id="svg_16">
      <path d="m1.3,-17.75l5.5,0c1.66,0 2.99,0.36 3.98,1.06c0.99,0.71 1.49,1.86 1.49,3.46c0,1.78 -0.75,3.05 -2.22,3.81c2.52,0.45 3.78,1.94 3.78,4.47c0,1.49 -0.52,2.68 -1.55,3.59c-1.03,0.91 -2.45,1.36 -4.25,1.36l-6.73,0l0,-17.75zm4.03,6.95l0.33,0c0.9,0 1.57,-0.15 2.01,-0.47c0.45,-0.32 0.67,-0.84 0.67,-1.56c0,-1.19 -0.89,-1.8 -2.68,-1.8l-0.33,0l0,3.83zm0,7.67l1.28,0c1.98,0 2.97,-0.65 2.97,-1.96c0,-0.79 -0.25,-1.36 -0.75,-1.71c-0.49,-0.34 -1.23,-0.51 -2.22,-0.51l-1.28,0l0,4.18zm0,0" id="svg_17"/>
     </g>
    </g>
   </g>
   <g fill="#335eea" id="svg_18">
    <g id="svg_19" transform="translate(69.686487, 32.596867)">
     <g id="svg_20">
      <path d="m1.3,-17.75l6.34,0c1.71,0 3.1,0.46 4.17,1.37c1.07,0.91 1.61,2.21 1.61,3.9c0,1.31 -0.33,2.41 -0.98,3.29c-0.65,0.88 -1.53,1.49 -2.64,1.85l6.11,7.34l-5.16,0l-5.42,-7.02l0,7.02l-4.03,0l0,-17.75zm4.03,7.87l0.48,0c0.38,0 0.69,0 0.94,-0.01c0.26,-0.02 0.55,-0.07 0.89,-0.16c0.33,-0.08 0.6,-0.2 0.8,-0.36c0.19,-0.16 0.36,-0.39 0.51,-0.68c0.15,-0.3 0.22,-0.67 0.22,-1.1c0,-0.44 -0.07,-0.8 -0.22,-1.11c-0.15,-0.3 -0.32,-0.53 -0.51,-0.68c-0.2,-0.16 -0.47,-0.28 -0.8,-0.36c-0.34,-0.1 -0.63,-0.15 -0.89,-0.16c-0.25,-0.01 -0.56,-0.02 -0.94,-0.02l-0.48,0l0,4.64zm0,0" id="svg_21"/>
     </g>
    </g>
   </g>
   <g fill="#335eea" id="svg_22">
    <g id="svg_23" transform="translate(85.088401, 32.596867)">
     <g id="svg_24">
      <path d="m5.33,-17.75l0,17.75l-4.03,0l0,-17.75l4.03,0zm0,0" id="svg_25"/>
     </g>
    </g>
   </g>
   <g fill="#335eea" id="svg_26">
    <g id="svg_27" transform="translate(91.713799, 32.596867)">
     <g id="svg_28">
      <path d="m0.5,-8.89c0,-2.56 0.88,-4.74 2.63,-6.52c1.75,-1.78 3.85,-2.67 6.32,-2.67c2.48,0 4.59,0.89 6.32,2.66c1.73,1.77 2.61,3.95 2.61,6.53c0,2.6 -0.86,4.79 -2.57,6.56c-1.71,1.78 -3.83,2.66 -6.36,2.66c-2.6,0 -4.75,-0.88 -6.43,-2.64c-1.68,-1.76 -2.52,-3.96 -2.52,-6.58zm4.36,0c0,0.94 0.14,1.79 0.42,2.56c0.29,0.76 0.8,1.41 1.52,1.94c0.72,0.53 1.6,0.8 2.65,0.8c1.5,0 2.63,-0.52 3.39,-1.55c0.77,-1.03 1.16,-2.28 1.16,-3.75c0,-1.45 -0.39,-2.69 -1.17,-3.72c-0.78,-1.04 -1.91,-1.56 -3.38,-1.56c-1.47,0 -2.6,0.52 -3.4,1.56c-0.8,1.03 -1.19,2.27 -1.19,3.72zm0,0" id="svg_29"/>
     </g>
    </g>
   </g>
   <g fill="#335eea" id="svg_30">
    <g id="svg_31" transform="translate(114.277335, 33.036968)">
     <g id="svg_32">
      <path d="m10.39,0.23c-1.22,0 -2.35,-0.2 -3.41,-0.61c-1.05,-0.4 -1.98,-1 -2.78,-1.78c-0.79,-0.79 -1.41,-1.74 -1.86,-2.86c-0.43,-1.12 -0.65,-2.39 -0.65,-3.81c0,-1.41 0.22,-2.68 0.65,-3.8c0.45,-1.12 1.07,-2.07 1.86,-2.85c0.8,-0.79 1.73,-1.38 2.78,-1.79c1.06,-0.41 2.19,-0.62 3.41,-0.62c1.13,0 2.18,0.18 3.16,0.53c0.97,0.34 1.84,0.85 2.61,1.52c0.75,0.66 1.38,1.46 1.86,2.4l-1.6,0.72c-0.38,-0.75 -0.88,-1.38 -1.5,-1.89c-0.62,-0.51 -1.31,-0.89 -2.08,-1.16c-0.76,-0.27 -1.57,-0.4 -2.45,-0.4c-0.96,0 -1.86,0.16 -2.7,0.48c-0.85,0.33 -1.59,0.81 -2.22,1.44c-0.64,0.62 -1.14,1.39 -1.5,2.3c-0.36,0.9 -0.53,1.95 -0.53,3.12c0,1.18 0.17,2.23 0.53,3.14c0.36,0.91 0.86,1.68 1.5,2.31c0.63,0.63 1.37,1.11 2.22,1.43c0.84,0.31 1.74,0.47 2.7,0.47c0.88,0 1.69,-0.13 2.45,-0.4c0.77,-0.26 1.46,-0.66 2.08,-1.17c0.62,-0.5 1.12,-1.13 1.5,-1.87l1.6,0.7c-0.48,0.95 -1.11,1.76 -1.86,2.42c-0.77,0.66 -1.64,1.17 -2.61,1.52c-0.98,0.34 -2.03,0.51 -3.16,0.51zm0,0" id="svg_33"/>
     </g>
    </g>
   </g>
   <g fill="#335eea" id="svg_34">
    <g id="svg_35" transform="translate(133.498959, 33.036968)">
     <g id="svg_36">
      <path d="m10.39,0.23c-1.22,0 -2.35,-0.2 -3.41,-0.61c-1.05,-0.4 -1.98,-1 -2.78,-1.78c-0.79,-0.79 -1.41,-1.74 -1.86,-2.86c-0.43,-1.12 -0.65,-2.39 -0.65,-3.81c0,-1.41 0.22,-2.68 0.65,-3.8c0.45,-1.12 1.07,-2.07 1.86,-2.85c0.8,-0.79 1.73,-1.38 2.78,-1.79c1.06,-0.41 2.19,-0.62 3.41,-0.62c1.22,0 2.35,0.21 3.41,0.62c1.05,0.41 1.97,1 2.76,1.79c0.79,0.78 1.41,1.73 1.86,2.85c0.45,1.12 0.67,2.39 0.67,3.8c0,1.42 -0.22,2.69 -0.67,3.81c-0.45,1.12 -1.07,2.07 -1.86,2.86c-0.79,0.78 -1.71,1.38 -2.76,1.78c-1.06,0.41 -2.19,0.61 -3.41,0.61zm0,-1.68c0.97,0 1.87,-0.16 2.7,-0.49c0.84,-0.32 1.57,-0.79 2.21,-1.42c0.63,-0.63 1.13,-1.41 1.48,-2.33c0.35,-0.91 0.53,-1.96 0.53,-3.14c0,-1.17 -0.18,-2.22 -0.53,-3.12c-0.35,-0.91 -0.85,-1.68 -1.48,-2.3c-0.64,-0.63 -1.37,-1.11 -2.21,-1.44c-0.83,-0.32 -1.73,-0.48 -2.7,-0.48c-0.96,0 -1.86,0.16 -2.7,0.48c-0.85,0.33 -1.59,0.81 -2.22,1.44c-0.64,0.62 -1.14,1.39 -1.5,2.3c-0.36,0.9 -0.53,1.95 -0.53,3.12c0,1.18 0.17,2.23 0.53,3.14c0.36,0.92 0.86,1.7 1.5,2.33c0.63,0.63 1.37,1.1 2.22,1.42c0.84,0.33 1.74,0.49 2.7,0.49zm0,0" id="svg_37"/>
     </g>
    </g>
   </g>
   <g fill="#335eea" id="svg_38">
    <g id="svg_39" transform="translate(154.276021, 33.036968)">
     <g id="svg_40">
      <path d="m14.73,-17.64l1.74,0l0,17.64l-1.72,0l-10.11,-14.84l0,14.84l-1.7,0l0,-17.64l1.7,0l10.09,14.76l0,-14.76zm0,0" id="svg_41"/>
     </g>
    </g>
   </g>
   <g fill="#335eea" id="svg_42">
    <g id="svg_43" transform="translate(173.687337, 33.036968)">
     <g id="svg_44">
      <path d="m8.27,0.23c-1.22,0 -2.29,-0.18 -3.24,-0.54c-0.94,-0.37 -1.71,-0.89 -2.33,-1.57c-0.61,-0.67 -1.02,-1.47 -1.23,-2.4l1.72,-0.42c0.19,0.7 0.51,1.3 0.98,1.81c0.48,0.5 1.07,0.89 1.78,1.16c0.71,0.26 1.49,0.39 2.35,0.39c0.53,0 1.05,-0.06 1.56,-0.18c0.52,-0.11 0.98,-0.29 1.39,-0.54c0.41,-0.26 0.74,-0.6 0.98,-1.03c0.25,-0.43 0.37,-0.96 0.36,-1.58c-0.01,-0.6 -0.16,-1.09 -0.45,-1.49c-0.28,-0.39 -0.67,-0.72 -1.16,-0.98c-0.48,-0.27 -1.02,-0.49 -1.62,-0.67c-0.59,-0.18 -1.21,-0.35 -1.84,-0.52c-0.57,-0.13 -1.12,-0.28 -1.66,-0.45c-0.54,-0.17 -1.05,-0.36 -1.52,-0.6c-0.46,-0.23 -0.88,-0.51 -1.25,-0.84c-0.35,-0.33 -0.63,-0.73 -0.84,-1.2c-0.2,-0.47 -0.3,-1.03 -0.3,-1.67c0,-0.82 0.16,-1.52 0.47,-2.11c0.31,-0.6 0.74,-1.1 1.27,-1.5c0.54,-0.4 1.15,-0.69 1.84,-0.89c0.69,-0.2 1.41,-0.3 2.16,-0.3c1.04,0 2,0.16 2.87,0.47c0.89,0.3 1.63,0.76 2.24,1.37c0.61,0.61 1.03,1.39 1.25,2.33l-1.67,0.42c-0.18,-0.68 -0.5,-1.25 -0.96,-1.68c-0.46,-0.45 -1.01,-0.79 -1.65,-1c-0.64,-0.22 -1.32,-0.33 -2.04,-0.33c-0.48,0 -0.96,0.06 -1.43,0.18c-0.48,0.12 -0.92,0.3 -1.3,0.55c-0.39,0.25 -0.7,0.58 -0.92,0.99c-0.23,0.4 -0.35,0.9 -0.35,1.48c0,0.54 0.12,1 0.36,1.36c0.24,0.37 0.57,0.67 0.99,0.91c0.41,0.24 0.89,0.44 1.44,0.61c0.53,0.15 1.1,0.31 1.68,0.46c0.59,0.15 1.18,0.31 1.77,0.47c0.59,0.16 1.15,0.36 1.67,0.6c0.53,0.24 1,0.54 1.41,0.89c0.4,0.34 0.72,0.77 0.97,1.28c0.23,0.51 0.36,1.12 0.36,1.84c0,0.85 -0.17,1.58 -0.5,2.21c-0.33,0.61 -0.77,1.12 -1.33,1.53c-0.57,0.4 -1.22,0.69 -1.96,0.89c-0.73,0.19 -1.5,0.29 -2.32,0.29zm0,0" id="svg_45"/>
     </g>
    </g>
   </g>
   <g fill="#335eea" id="svg_46">
    <g id="svg_47" transform="translate(189.646343, 33.036968)">
     <g id="svg_48">
      <path d="m8.81,0.23c-0.88,0 -1.71,-0.13 -2.47,-0.4c-0.75,-0.27 -1.41,-0.67 -1.98,-1.19c-0.56,-0.52 -1.01,-1.14 -1.33,-1.87c-0.31,-0.74 -0.47,-1.57 -0.47,-2.5l0,-11.91l1.77,0l0,11.66c0,1.01 0.19,1.85 0.59,2.54c0.4,0.68 0.93,1.19 1.61,1.53c0.68,0.35 1.44,0.52 2.28,0.52c0.85,0 1.6,-0.17 2.28,-0.52c0.69,-0.34 1.24,-0.86 1.64,-1.54c0.41,-0.69 0.61,-1.53 0.61,-2.53l0,-11.66l1.75,0l0,11.91c0,0.93 -0.16,1.76 -0.48,2.5c-0.31,0.73 -0.76,1.35 -1.33,1.87c-0.56,0.52 -1.23,0.92 -2,1.19c-0.76,0.27 -1.58,0.4 -2.47,0.4zm0,0" id="svg_49"/>
     </g>
    </g>
   </g>
   <g fill="#335eea" id="svg_50">
    <g id="svg_51" transform="translate(207.312537, 33.036968)">
     <g id="svg_52">
      <path d="m4.69,-1.63l6.33,0l0,1.63l-8.08,0l0,-17.64l1.75,0l0,16.01zm0,0" id="svg_53"/>
     </g>
    </g>
   </g>
   <g fill="#335eea" id="svg_54">
    <g id="svg_55" transform="translate(219.123719, 33.036968)">
     <g id="svg_56">
      <path d="m11.81,-17.64l0,1.61l-4.64,0l0,16.03l-1.75,0l0,-16.03l-4.64,0l0,-1.61l11.03,0zm0,0" id="svg_57"/>
     </g>
    </g>
   </g>
   <g fill="#335eea" id="svg_58">
    <g id="svg_59" transform="translate(231.718941, 33.036968)">
     <g id="svg_60">
      <path d="m2.94,0l0,-17.64l1.75,0l0,17.64l-1.75,0zm0,0" id="svg_61"/>
     </g>
    </g>
   </g>
   <g fill="#335eea" id="svg_62">
    <g id="svg_63" transform="translate(239.344366, 33.036968)">
     <g id="svg_64">
      <path d="m14.73,-17.64l1.74,0l0,17.64l-1.72,0l-10.11,-14.84l0,14.84l-1.7,0l0,-17.64l1.7,0l10.09,14.76l0,-14.76zm0,0" id="svg_65"/>
     </g>
    </g>
   </g>
   <g fill="#335eea" id="svg_66">
    <g id="svg_67" transform="translate(258.755682, 33.036968)">
     <g id="svg_68">
      <path d="m10.39,0.23c-1.22,0 -2.35,-0.19 -3.41,-0.59c-1.05,-0.41 -1.98,-0.99 -2.78,-1.77c-0.79,-0.76 -1.41,-1.71 -1.86,-2.82c-0.43,-1.13 -0.65,-2.4 -0.65,-3.83c0,-1.43 0.22,-2.7 0.65,-3.83c0.45,-1.13 1.07,-2.09 1.86,-2.87c0.8,-0.79 1.73,-1.38 2.78,-1.79c1.06,-0.41 2.19,-0.62 3.41,-0.62c1.05,0 2.05,0.16 2.99,0.47c0.93,0.3 1.78,0.76 2.53,1.36c0.75,0.6 1.39,1.36 1.9,2.28l-1.54,0.81c-0.42,-0.74 -0.93,-1.35 -1.54,-1.83c-0.59,-0.47 -1.26,-0.83 -2,-1.06c-0.74,-0.23 -1.52,-0.34 -2.34,-0.34c-0.97,0 -1.87,0.16 -2.72,0.48c-0.83,0.33 -1.57,0.81 -2.2,1.44c-0.63,0.62 -1.12,1.4 -1.47,2.31c-0.36,0.92 -0.53,1.98 -0.53,3.17c0,1.19 0.17,2.25 0.53,3.16c0.35,0.92 0.84,1.69 1.47,2.33c0.63,0.62 1.37,1.1 2.22,1.42c0.85,0.31 1.77,0.47 2.76,0.47c1.16,0 2.19,-0.22 3.1,-0.66c0.9,-0.44 1.64,-1.1 2.2,-1.97c0.57,-0.87 0.91,-1.94 1.03,-3.22l-6.34,0l0,-1.53l8.09,0l0,8.8l-1.48,0l0,-3.63c-0.59,1.25 -1.46,2.2 -2.61,2.86c-1.15,0.67 -2.5,1 -4.05,1zm0,0" id="svg_69"/>
     </g>
    </g>
   </g>
  </g>
 </g>
</svg>