<svg xmlns="http://www.w3.org/2000/svg" xmlns:xlink="http://www.w3.org/1999/xlink" width="280" zoomAndPan="magnify" viewBox="0 0 210 30.000001" height="40" preserveAspectRatio="xMidYMid meet" version="1.0"><defs><g/></defs><g fill="#335eea" fill-opacity="1"><g transform="translate(4.1129, 20.030536)"><g><path d="M 7.90625 -2.6875 C 8.363281 -2.6875 8.804688 -2.753906 9.234375 -2.890625 C 9.660156 -3.035156 9.972656 -3.171875 10.171875 -3.296875 L 10.46875 -3.5 L 11.734375 -0.96875 C 11.691406 -0.9375 11.632812 -0.894531 11.5625 -0.84375 C 11.488281 -0.789062 11.316406 -0.691406 11.046875 -0.546875 C 10.773438 -0.398438 10.488281 -0.273438 10.1875 -0.171875 C 9.882812 -0.0664062 9.484375 0.0234375 8.984375 0.109375 C 8.484375 0.191406 7.972656 0.234375 7.453125 0.234375 C 6.234375 0.234375 5.078125 -0.0625 3.984375 -0.65625 C 2.898438 -1.25 2.023438 -2.066406 1.359375 -3.109375 C 0.691406 -4.160156 0.359375 -5.296875 0.359375 -6.515625 C 0.359375 -7.429688 0.550781 -8.3125 0.9375 -9.15625 C 1.332031 -10 1.851562 -10.722656 2.5 -11.328125 C 3.15625 -11.929688 3.914062 -12.410156 4.78125 -12.765625 C 5.644531 -13.128906 6.535156 -13.3125 7.453125 -13.3125 C 8.296875 -13.3125 9.070312 -13.207031 9.78125 -13 C 10.5 -12.800781 11.003906 -12.601562 11.296875 -12.40625 L 11.734375 -12.109375 L 10.46875 -9.5625 C 10.394531 -9.632812 10.285156 -9.710938 10.140625 -9.796875 C 9.992188 -9.890625 9.695312 -10.007812 9.25 -10.15625 C 8.8125 -10.300781 8.363281 -10.375 7.90625 -10.375 C 7.1875 -10.375 6.539062 -10.257812 5.96875 -10.03125 C 5.40625 -9.800781 4.957031 -9.492188 4.625 -9.109375 C 4.289062 -8.734375 4.035156 -8.320312 3.859375 -7.875 C 3.679688 -7.4375 3.59375 -6.992188 3.59375 -6.546875 C 3.59375 -5.546875 3.960938 -4.648438 4.703125 -3.859375 C 5.453125 -3.078125 6.519531 -2.6875 7.90625 -2.6875 Z M 7.90625 -2.6875 "/></g></g></g><g fill="#335eea" fill-opacity="1"><g transform="translate(16.047663, 20.030536)"><g><path d="M 7.59375 -13.078125 L 12.859375 0 L 9.671875 0 L 8.703125 -2.609375 L 3.71875 -2.609375 L 2.75 0 L -0.4375 0 L 4.828125 -13.078125 Z M 7.6875 -5.234375 L 6.234375 -9.03125 L 6.1875 -9.03125 L 4.734375 -5.234375 Z M 7.6875 -5.234375 "/></g></g></g><g fill="#335eea" fill-opacity="1"><g transform="translate(28.473771, 20.030536)"><g><path d="M 3.921875 -13.078125 L 3.921875 -2.609375 L 8.421875 -2.609375 L 8.421875 0 L 0.953125 0 L 0.953125 -13.078125 Z M 3.921875 -13.078125 "/></g></g></g><g fill="#335eea" fill-opacity="1"><g transform="translate(37.428806, 20.030536)"><g><path d="M 0.953125 -13.078125 L 5 -13.078125 C 6.226562 -13.078125 7.207031 -12.8125 7.9375 -12.28125 C 8.664062 -11.757812 9.03125 -10.914062 9.03125 -9.75 C 9.03125 -8.4375 8.488281 -7.5 7.40625 -6.9375 C 9.257812 -6.613281 10.1875 -5.515625 10.1875 -3.640625 C 10.1875 -2.546875 9.804688 -1.664062 9.046875 -1 C 8.285156 -0.332031 7.238281 0 5.90625 0 L 0.953125 0 Z M 3.921875 -7.953125 L 4.171875 -7.953125 C 4.835938 -7.953125 5.332031 -8.066406 5.65625 -8.296875 C 5.976562 -8.535156 6.140625 -8.914062 6.140625 -9.4375 C 6.140625 -10.332031 5.484375 -10.78125 4.171875 -10.78125 L 3.921875 -10.78125 Z M 3.921875 -2.296875 L 4.859375 -2.296875 C 6.316406 -2.296875 7.046875 -2.78125 7.046875 -3.75 C 7.046875 -4.332031 6.863281 -4.75 6.5 -5 C 6.132812 -5.257812 5.585938 -5.390625 4.859375 -5.390625 L 3.921875 -5.390625 Z M 3.921875 -2.296875 "/></g></g></g><g fill="#335eea" fill-opacity="1"><g transform="translate(47.984657, 20.030536)"><g><path d="M 0.953125 -13.078125 L 5.625 -13.078125 C 6.882812 -13.078125 7.910156 -12.738281 8.703125 -12.0625 C 9.492188 -11.394531 9.890625 -10.4375 9.890625 -9.1875 C 9.890625 -8.226562 9.644531 -7.421875 9.15625 -6.765625 C 8.675781 -6.117188 8.023438 -5.664062 7.203125 -5.40625 L 11.703125 0 L 7.921875 0 L 3.921875 -5.171875 L 3.921875 0 L 0.953125 0 Z M 3.921875 -7.265625 L 4.28125 -7.265625 C 4.550781 -7.265625 4.78125 -7.269531 4.96875 -7.28125 C 5.164062 -7.289062 5.382812 -7.328125 5.625 -7.390625 C 5.863281 -7.460938 6.054688 -7.554688 6.203125 -7.671875 C 6.359375 -7.785156 6.488281 -7.953125 6.59375 -8.171875 C 6.695312 -8.398438 6.75 -8.671875 6.75 -8.984375 C 6.75 -9.296875 6.695312 -9.5625 6.59375 -9.78125 C 6.488281 -10.007812 6.359375 -10.179688 6.203125 -10.296875 C 6.054688 -10.410156 5.863281 -10.5 5.625 -10.5625 C 5.382812 -10.625 5.164062 -10.660156 4.96875 -10.671875 C 4.78125 -10.679688 4.550781 -10.6875 4.28125 -10.6875 L 3.921875 -10.6875 Z M 3.921875 -7.265625 "/></g></g></g><g fill="#335eea" fill-opacity="1"><g transform="translate(59.332989, 20.030536)"><g><path d="M 3.921875 -13.078125 L 3.921875 0 L 0.953125 0 L 0.953125 -13.078125 Z M 3.921875 -13.078125 "/></g></g></g><g fill="#335eea" fill-opacity="1"><g transform="translate(64.21467, 20.030536)"><g><path d="M 0.359375 -6.546875 C 0.359375 -8.429688 1.003906 -10.03125 2.296875 -11.34375 C 3.585938 -12.65625 5.140625 -13.3125 6.953125 -13.3125 C 8.785156 -13.3125 10.335938 -12.65625 11.609375 -11.34375 C 12.890625 -10.039062 13.53125 -8.441406 13.53125 -6.546875 C 13.53125 -4.628906 12.898438 -3.019531 11.640625 -1.71875 C 10.390625 -0.414062 8.828125 0.234375 6.953125 0.234375 C 5.046875 0.234375 3.46875 -0.410156 2.21875 -1.703125 C 0.976562 -2.992188 0.359375 -4.609375 0.359375 -6.546875 Z M 3.578125 -6.546875 C 3.578125 -5.859375 3.679688 -5.226562 3.890625 -4.65625 C 4.109375 -4.09375 4.476562 -3.613281 5 -3.21875 C 5.53125 -2.832031 6.179688 -2.640625 6.953125 -2.640625 C 8.066406 -2.640625 8.90625 -3.019531 9.46875 -3.78125 C 10.03125 -4.539062 10.3125 -5.460938 10.3125 -6.546875 C 10.3125 -7.609375 10.023438 -8.519531 9.453125 -9.28125 C 8.878906 -10.050781 8.046875 -10.4375 6.953125 -10.4375 C 5.878906 -10.4375 5.046875 -10.050781 4.453125 -9.28125 C 3.867188 -8.519531 3.578125 -7.609375 3.578125 -6.546875 Z M 3.578125 -6.546875 "/></g></g></g><g fill="#335eea" fill-opacity="1"><g transform="translate(80.839785, 20.567044)"><g><path d="M 10.40625 0 L 9.234375 -3.265625 L 3.203125 -3.265625 L 2.015625 0 L 0.65625 0 L 5.4375 -13 L 6.96875 -13 L 11.765625 0 Z M 3.625 -4.453125 L 8.796875 -4.453125 L 6.203125 -11.640625 Z M 3.625 -4.453125 "/></g></g></g><g fill="#335eea" fill-opacity="1"><g transform="translate(93.256413, 20.567044)"><g><path d="M 7.65625 0.171875 C 6.757812 0.171875 5.921875 0.0195312 5.140625 -0.28125 C 4.367188 -0.582031 3.691406 -1.019531 3.109375 -1.59375 C 2.523438 -2.175781 2.066406 -2.878906 1.734375 -3.703125 C 1.410156 -4.523438 1.25 -5.457031 1.25 -6.5 C 1.25 -7.550781 1.410156 -8.488281 1.734375 -9.3125 C 2.066406 -10.132812 2.523438 -10.832031 3.109375 -11.40625 C 3.691406 -11.988281 4.367188 -12.429688 5.140625 -12.734375 C 5.921875 -13.035156 6.757812 -13.1875 7.65625 -13.1875 C 8.488281 -13.1875 9.265625 -13.054688 9.984375 -12.796875 C 10.703125 -12.535156 11.34375 -12.160156 11.90625 -11.671875 C 12.46875 -11.191406 12.925781 -10.601562 13.28125 -9.90625 L 12.09375 -9.375 C 11.8125 -9.925781 11.445312 -10.390625 11 -10.765625 C 10.550781 -11.140625 10.039062 -11.425781 9.46875 -11.625 C 8.90625 -11.820312 8.300781 -11.921875 7.65625 -11.921875 C 6.945312 -11.921875 6.28125 -11.800781 5.65625 -11.5625 C 5.039062 -11.320312 4.5 -10.96875 4.03125 -10.5 C 3.5625 -10.039062 3.191406 -9.476562 2.921875 -8.8125 C 2.660156 -8.144531 2.53125 -7.375 2.53125 -6.5 C 2.53125 -5.632812 2.660156 -4.863281 2.921875 -4.1875 C 3.191406 -3.519531 3.5625 -2.953125 4.03125 -2.484375 C 4.5 -2.023438 5.039062 -1.675781 5.65625 -1.4375 C 6.28125 -1.207031 6.945312 -1.09375 7.65625 -1.09375 C 8.300781 -1.09375 8.90625 -1.1875 9.46875 -1.375 C 10.039062 -1.570312 10.550781 -1.859375 11 -2.234375 C 11.445312 -2.617188 11.8125 -3.082031 12.09375 -3.625 L 13.28125 -3.109375 C 12.925781 -2.410156 12.46875 -1.816406 11.90625 -1.328125 C 11.34375 -0.835938 10.703125 -0.460938 9.984375 -0.203125 C 9.265625 0.046875 8.488281 0.171875 7.65625 0.171875 Z M 7.65625 0.171875 "/></g></g></g><g fill="#335eea" fill-opacity="1"><g transform="translate(107.425539, 20.567044)"><g><path d="M 10.40625 0 L 9.234375 -3.265625 L 3.203125 -3.265625 L 2.015625 0 L 0.65625 0 L 5.4375 -13 L 6.96875 -13 L 11.765625 0 Z M 3.625 -4.453125 L 8.796875 -4.453125 L 6.203125 -11.640625 Z M 3.625 -4.453125 "/></g></g></g><g fill="#335eea" fill-opacity="1"><g transform="translate(119.842167, 20.567044)"><g><path d="M 2.15625 0 L 2.15625 -13 L 6.1875 -13 C 7.164062 -13 8.023438 -12.835938 8.765625 -12.515625 C 9.503906 -12.203125 10.117188 -11.753906 10.609375 -11.171875 C 11.109375 -10.585938 11.484375 -9.898438 11.734375 -9.109375 C 11.992188 -8.316406 12.125 -7.445312 12.125 -6.5 C 12.125 -5.5625 11.992188 -4.691406 11.734375 -3.890625 C 11.484375 -3.097656 11.109375 -2.410156 10.609375 -1.828125 C 10.117188 -1.242188 9.503906 -0.789062 8.765625 -0.46875 C 8.023438 -0.15625 7.164062 0 6.1875 0 Z M 3.453125 -1.1875 L 6.15625 -1.1875 C 7.195312 -1.1875 8.054688 -1.410156 8.734375 -1.859375 C 9.421875 -2.304688 9.929688 -2.925781 10.265625 -3.71875 C 10.609375 -4.519531 10.78125 -5.445312 10.78125 -6.5 C 10.78125 -7.5625 10.609375 -8.488281 10.265625 -9.28125 C 9.929688 -10.082031 9.421875 -10.703125 8.734375 -11.140625 C 8.054688 -11.585938 7.195312 -11.8125 6.15625 -11.8125 L 3.453125 -11.8125 Z M 3.453125 -1.1875 "/></g></g></g><g fill="#335eea" fill-opacity="1"><g transform="translate(133.256226, 20.567044)"><g><path d="M 8.953125 -11.8125 L 3.5 -11.8125 L 3.5 -7.078125 L 8.28125 -7.078125 L 8.28125 -5.90625 L 3.5 -5.90625 L 3.5 -1.1875 L 8.953125 -1.1875 L 8.953125 0 L 2.15625 0 L 2.15625 -13 L 8.953125 -13 Z M 8.953125 -11.8125 "/></g></g></g><g fill="#335eea" fill-opacity="1"><g transform="translate(143.333086, 20.567044)"><g><path d="M 15.53125 0 L 14.296875 0 L 13.421875 -11.046875 L 8.96875 0 L 8.234375 0 L 3.8125 -10.96875 L 2.9375 0 L 1.6875 0 L 2.640625 -13 L 4.25 -13 L 8.609375 -2.25 L 12.953125 -13 L 14.578125 -13 Z M 15.53125 0 "/></g></g></g><g fill="#335eea" fill-opacity="1"><g transform="translate(160.550436, 20.567044)"><g><path d="M 4.78125 0 L 4.78125 -6.203125 L 0.5 -13 L 2.015625 -13 L 5.4375 -7.390625 L 8.859375 -13 L 10.375 -13 L 6.09375 -6.203125 L 6.09375 0 Z M 4.78125 0 "/></g></g></g></svg>